<?xml version="1.0" encoding="UTF-8" standalone="no"?>
<!-- Created with Inkscape (http://www.inkscape.org/) -->

<svg
   xmlns:dc="http://purl.org/dc/elements/1.1/"
   xmlns:cc="http://creativecommons.org/ns#"
   xmlns:rdf="http://www.w3.org/1999/02/22-rdf-syntax-ns#"
   xmlns:svg="http://www.w3.org/2000/svg"
   xmlns="http://www.w3.org/2000/svg"
   xmlns:xlink="http://www.w3.org/1999/xlink"
   xmlns:sodipodi="http://sodipodi.sourceforge.net/DTD/sodipodi-0.dtd"
   xmlns:inkscape="http://www.inkscape.org/namespaces/inkscape"
   sodipodi:docname="OSMflyer.svg"
   inkscape:version="0.48.3.1 r9886"
   version="1.1"
   id="svg2"
   height="744.09003"
   width="1052.36">
  <sodipodi:namedview
     id="base"
     pagecolor="#ffffff"
     bordercolor="#666666"
     borderopacity="1.0"
     inkscape:pageopacity="0"
     inkscape:pageshadow="2"
     inkscape:zoom="0.57"
     inkscape:cx="631.00689"
     inkscape:cy="292.65662"
     inkscape:document-units="px"
     inkscape:current-layer="svg2"
     showgrid="false"
     inkscape:window-width="1871"
     inkscape:window-height="1056"
     inkscape:window-x="49"
     inkscape:window-y="24"
     inkscape:window-maximized="1"
     showguides="false"
     inkscape:guide-bbox="true"
     inkscape:snap-page="true"
     inkscape:snap-global="false"
     inkscape:object-nodes="true"
     guidecolor="#0000ff"
     guideopacity="0.49803922"
     inkscape:snap-grids="true"
     inkscape:snap-bbox="true"
     inkscape:snap-smooth-nodes="true"
     inkscape:snap-object-midpoints="false"
     inkscape:snap-nodes="true"
     inkscape:object-paths="false"
     inkscape:showpageshadow="false">
    <inkscape:grid
       snapvisiblegridlinesonly="true"
       enabled="true"
       visible="true"
       empspacing="5"
       id="grid3012"
       type="xygrid" />
    <sodipodi:guide
       id="guide3817"
       orientation="70,0"
       position="0,568.45077" />
    <sodipodi:guide
       id="guide3819"
       orientation="70,0"
       position="1052.3622,554.61269" />
    <sodipodi:guide
       id="guide3821"
       orientation="70,0"
       position="701.57477,541.92779" />
    <sodipodi:guide
       id="guide3823"
       orientation="70,0"
       position="350.78738,550" />
    <sodipodi:guide
       id="guide3969"
       position="-350.78742,438.81781"
       orientation="1,0" />
    <sodipodi:guide
       id="guide3971"
       position="-701.57483,442.53941"
       orientation="1,0" />
    <sodipodi:guide
       id="guide3973"
       position="-1052.36,744.09003"
       orientation="1,0" />
    <sodipodi:guide
       id="guide3975"
       position="-1010.1774,666.9642"
       orientation="0,1" />
    <sodipodi:guide
       id="guide4791"
       position="42.29165,640.09996"
       orientation="1,0" />
    <sodipodi:guide
       id="guide4793"
       position="-1010.1774,666.9642"
       orientation="1,0" />
    <sodipodi:guide
       id="guide4795"
       position="-658.80365,666.97115"
       orientation="1,0" />
    <sodipodi:guide
       id="guide4797"
       position="-302.30366,674.46512"
       orientation="1,0" />
    <sodipodi:guide
       id="guide3124"
       position="-718.5,648.5"
       orientation="0,1" />
    <sodipodi:guide
       id="guide4540"
       position="1052.36,0"
       orientation="0,1" />
    <sodipodi:guide
       id="guide4542"
       position="0,744.09003"
       orientation="0,1" />
    <sodipodi:guide
       id="guide4082"
       position="394.875,619.75"
       orientation="1,0" />
    <sodipodi:guide
       id="guide5527"
       position="-842.32135,186.50745"
       orientation="1,0" />
    <sodipodi:guide
       id="guide5771"
       position="-396.06819,548.27292"
       orientation="1,0" />
  </sodipodi:namedview>
  <defs
     id="defs4">
    <clipPath
       id="Clip_2">
      <path
         id="path35"
         d="m 349.5,4 c 3.043,0 5.5,2.457 5.5,5.5 0,3.043 -2.457,5.5 -5.5,5.5 -3.043,0 -5.5,-2.457 -5.5,-5.5 0,-3.043 2.457,-5.5 5.5,-5.5 z"
         inkscape:connector-curvature="0" />
    </clipPath>
    <clipPath
       id="Clip_1">
      <path
         id="path32"
         d="m 349.5,4 c 3.043,0 5.5,2.457 5.5,5.5 0,3.043 -2.457,5.5 -5.5,5.5 -3.043,0 -5.5,-2.457 -5.5,-5.5 0,-3.043 2.457,-5.5 5.5,-5.5 z"
         inkscape:connector-curvature="0" />
    </clipPath>
    <linearGradient
       inkscape:collect="always"
       xlink:href="#linearGradient6832"
       id="linearGradient4065"
       gradientUnits="userSpaceOnUse"
       x1="912.69922"
       y1="178.68723"
       x2="921.42023"
       y2="257.28391"
       gradientTransform="matrix(0.70360521,0,0,0.70360521,-546.33397,728.09172)" />
    <linearGradient
       id="linearGradient6832"
       inkscape:collect="always">
      <stop
         id="stop6834"
         offset="0"
         style="stop-color:#ff0000;stop-opacity:1;" />
      <stop
         id="stop6836"
         offset="1"
         style="stop-color:#ff0000;stop-opacity:0;" />
    </linearGradient>
    <linearGradient
       id="linearGradient6832-0"
       inkscape:collect="always">
      <stop
         id="stop6834-1-8"
         offset="0"
         style="stop-color:#ff0000;stop-opacity:1;" />
      <stop
         id="stop6836-3"
         offset="1"
         style="stop-color:#ff0000;stop-opacity:0;" />
    </linearGradient>
    <filter
       height="1.5021667"
       y="-0.25108334"
       width="1.4796816"
       x="-0.23984081"
       id="filter4378"
       inkscape:collect="always"
       color-interpolation-filters="sRGB">
      <feGaussianBlur
         id="feGaussianBlur4380"
         stdDeviation="2.3137579"
         inkscape:collect="always" />
    </filter>
    <linearGradient
       y2="257.28391"
       x2="921.42023"
       y1="178.68723"
       x1="912.69922"
       gradientTransform="matrix(1.1060682,0,0,1.1060682,-530.44507,349.05887)"
       gradientUnits="userSpaceOnUse"
       id="linearGradient3545"
       xlink:href="#linearGradient6832-0"
       inkscape:collect="always" />
  </defs>
  <metadata
     id="metadata7">
    <rdf:RDF>
      <cc:Work
         rdf:about="">
        <dc:format>image/svg+xml</dc:format>
        <dc:type
           rdf:resource="http://purl.org/dc/dcmitype/StillImage" />
        <dc:title></dc:title>
      </cc:Work>
    </rdf:RDF>
  </metadata>
  <g
     style="display:inline"
     inkscape:label="圖層"
     id="layer2"
     inkscape:groupmode="layer" />
  <g
     style="display:inline"
     inkscape:label="nan-print page number"
     id="layer4"
     inkscape:groupmode="layer" />
  <g
     style="display:inline"
     inkscape:label="插圖-視窗"
     id="layer5"
     inkscape:groupmode="layer" />
  <g
     style="display:inline"
     inkscape:label="圖層#1"
     id="layer3"
     inkscape:groupmode="layer">
    <text
       sodipodi:linespacing="125%"
       id="text4258"
       y="489.51526"
       x="-613.97443"
       style="font-size:40px;font-style:normal;font-variant:normal;font-weight:normal;font-stretch:normal;line-height:125%;letter-spacing:0px;word-spacing:0px;fill:#000000;fill-opacity:1;stroke:none;font-family:FontAwesome;-inkscape-font-specification:FontAwesome"
       xml:space="preserve"><tspan
         y="489.51526"
         x="-613.97443"
         id="tspan4260"
         sodipodi:role="line" /></text>
    <text
       xml:space="preserve"
       style="font-size:40px;font-style:normal;font-variant:normal;font-weight:normal;font-stretch:normal;line-height:125%;letter-spacing:0px;word-spacing:0px;fill:#000000;fill-opacity:1;stroke:none;font-family:FontAwesome;-inkscape-font-specification:FontAwesome"
       x="-1554.6316"
       y="181.79179"
       id="text5813"
       sodipodi:linespacing="125%"><tspan
         sodipodi:role="line"
         x="-1554.6316"
         y="181.79179"
         id="tspan5815" /></text>
    <text
       xml:space="preserve"
       style="font-size:40px;font-style:normal;font-variant:normal;font-weight:normal;font-stretch:normal;line-height:125%;letter-spacing:0px;word-spacing:0px;fill:#000000;fill-opacity:1;stroke:none;font-family:FontAwesome;-inkscape-font-specification:FontAwesome"
       x="-1554.6316"
       y="235.87952"
       id="text5844"
       sodipodi:linespacing="125%"><tspan
         sodipodi:role="line"
         x="-1554.6316"
         y="235.87952"
         id="tspan5846" /></text>
    <text
       xml:space="preserve"
       style="font-size:40px;font-style:normal;font-variant:normal;font-weight:normal;font-stretch:normal;line-height:125%;letter-spacing:0px;word-spacing:0px;fill:#000000;fill-opacity:1;stroke:none;font-family:FontAwesome;-inkscape-font-specification:FontAwesome"
       x="-1554.6316"
       y="288.20541"
       id="text5976"
       sodipodi:linespacing="125%"><tspan
         sodipodi:role="line"
         x="-1554.6316"
         y="288.20541"
         id="tspan5978" /></text>
    <text
       sodipodi:linespacing="125%"
       id="text4347"
       y="339.11713"
       x="-1556.0459"
       style="font-size:40px;font-style:normal;font-variant:normal;font-weight:normal;font-stretch:normal;line-height:125%;letter-spacing:0px;word-spacing:0px;fill:#000000;fill-opacity:1;stroke:none;font-family:FontAwesome;-inkscape-font-specification:FontAwesome"
       xml:space="preserve"><tspan
         id="tspan5809"
         y="339.11713"
         x="-1556.0459"
         sodipodi:role="line" /></text>
    <g
       transform="matrix(0,-1,1,0,-420.14341,1000.2981)"
       style="display:inline"
       id="g4623" />
  </g>
  <g
     style="display:inline"
     transform="translate(0,-308.27218)"
     id="layer1"
     inkscape:groupmode="layer"
     inkscape:label="txt">
    <text
       sodipodi:linespacing="125%"
       id="text3827"
       y="1556.3622"
       x="106"
       style="font-size:40px;font-style:normal;font-variant:normal;font-weight:normal;font-stretch:normal;line-height:125%;letter-spacing:0px;word-spacing:0px;fill:#000000;fill-opacity:1;stroke:none;font-family:FontAwesome;-inkscape-font-specification:FontAwesome"
       xml:space="preserve"><tspan
         y="1556.3622"
         x="106"
         id="tspan3829"
         sodipodi:role="line" /></text>
    <flowRoot
       style="font-size:40px;font-style:normal;font-variant:normal;font-weight:normal;font-stretch:normal;line-height:125%;letter-spacing:0px;word-spacing:0px;fill:#000000;fill-opacity:1;stroke:none;font-family:FontAwesome;-inkscape-font-specification:FontAwesome"
       id="flowRoot5083"
       xml:space="preserve"><flowRegion
         id="flowRegion5085"><rect
           y="-845.48602"
           x="1742.3112"
           height="899.43982"
           width="1182.2826"
           id="rect5087" /></flowRegion><flowPara
         id="flowPara5089" /></flowRoot>    <flowRoot
       style="font-size:40px;font-style:normal;font-variant:normal;font-weight:normal;font-stretch:normal;line-height:125%;letter-spacing:0px;word-spacing:0px;fill:#000000;fill-opacity:1;stroke:none;font-family:FontAwesome;-inkscape-font-specification:FontAwesome"
       id="flowRoot5470"
       xml:space="preserve"><flowRegion
         id="flowRegion5472"><rect
           y="1089.9233"
           x="123.02631"
           height="46.271931"
           width="112.0614"
           id="rect5474" /></flowRegion><flowPara
         id="flowPara5476" /></flowRoot>    <flowRoot
       style="fill:black;stroke:none;stroke-opacity:1;stroke-width:1px;stroke-linejoin:miter;stroke-linecap:butt;fill-opacity:1;font-family:FontAwesome;font-style:normal;font-weight:normal;font-size:40px;line-height:125%;letter-spacing:0px;word-spacing:0px;-inkscape-font-specification:FontAwesome;font-stretch:normal;font-variant:normal"
       id="flowRoot5651"
       xml:space="preserve"><flowRegion
         id="flowRegion5653"><rect
           y="100.09003"
           x="-538.5"
           height="100"
           width="51.5"
           id="rect5655" /></flowRegion><flowPara
         id="flowPara5657" /></flowRoot>    <text
       transform="translate(0,308.27218)"
       sodipodi:linespacing="125%"
       id="text5743"
       y="492.36002"
       x="-628.61792"
       style="font-size:40px;font-style:normal;font-variant:normal;font-weight:normal;font-stretch:normal;line-height:125%;letter-spacing:0px;word-spacing:0px;fill:#000000;fill-opacity:1;stroke:none;font-family:FontAwesome;-inkscape-font-specification:FontAwesome"
       xml:space="preserve"><tspan
         id="tspan5745"
         sodipodi:role="line" /></text>
    <image
       width="368.75903"
       height="619.76312"
       xlink:href="cover_1.png"
       id="image3587"
       x="701.57483"
       y="385.73926"
       style="display:inline" />
    <text
       sodipodi:linespacing="125%"
       id="text5923"
       y="727.37817"
       x="770.729"
       style="font-size:25.73330879px;font-style:normal;font-variant:normal;font-weight:normal;font-stretch:normal;text-align:start;line-height:125%;letter-spacing:0px;word-spacing:0px;writing-mode:lr-tb;text-anchor:start;fill:#75507b;fill-opacity:1;stroke:none;display:inline;font-family:Ubuntu;-inkscape-font-specification:Ubuntu"
       xml:space="preserve"><tspan
         y="727.37817"
         x="770.729"
         id="tspan5925"
         sodipodi:role="line">OpenStreetMap</tspan></text>
    <text
       xml:space="preserve"
       style="font-size:40px;font-style:normal;font-variant:normal;font-weight:normal;font-stretch:normal;text-align:start;line-height:125%;letter-spacing:10px;word-spacing:0px;writing-mode:lr-tb;text-anchor:start;fill:#75507b;fill-opacity:1;stroke:none;display:inline;font-family:Noto Sans T Chinese;-inkscape-font-specification:Noto Sans T Chinese"
       x="770.46155"
       y="694.44659"
       id="text4367"
       sodipodi:linespacing="125%"><tspan
         sodipodi:role="line"
         id="tspan4369"
         x="770.46155"
         y="694.44659">開放街圖</tspan></text>
    <image
       transform="matrix(0.95855705,-0.28490064,0.28490064,0.95855705,0,0)"
       y="593.31158"
       x="560.29089"
       id="image5921"
       xlink:href="OSM-tw.png"
       height="69.323792"
       width="69.323792"
       style="display:inline" />
    <g
       transform="translate(-1.512035,306.27219)"
       id="g3581"
       style="display:inline">
      <text
         xml:space="preserve"
         style="font-size:19.67194366px;font-style:normal;font-variant:normal;font-weight:normal;font-stretch:normal;text-align:start;line-height:125%;letter-spacing:0px;word-spacing:0px;writing-mode:lr-tb;text-anchor:start;fill:#2e3436;fill-opacity:1;stroke:none;font-family:Ubuntu;-inkscape-font-specification:Ubuntu"
         x="809.65857"
         y="728.89783"
         id="text3521"
         sodipodi:linespacing="125%"><tspan
           sodipodi:role="line"
           id="tspan3523"
           x="809.65857"
           y="728.89783">OpenStreetMap </tspan></text>
      <text
         sodipodi:linespacing="125%"
         id="text4700"
         y="727.74634"
         x="952.39703"
         style="font-size:16px;font-style:normal;font-variant:normal;font-weight:500;font-stretch:normal;text-align:start;line-height:125%;letter-spacing:0px;word-spacing:0px;writing-mode:lr-tb;text-anchor:start;fill:#2e3436;fill-opacity:1;stroke:none;font-family:Noto Sans T Chinese;-inkscape-font-specification:Noto Sans T Chinese Medium"
         xml:space="preserve"><tspan
           y="727.74634"
           x="952.39703"
           id="tspan4702"
           sodipodi:role="line">台灣</tspan></text>
      <rect
         transform="matrix(1.1445786,0,0,1.0312049,-116.81344,-21.572902)"
         rx="0.80510849"
         ry="0.89362448"
         y="711.09247"
         x="783.245"
         height="22.672314"
         width="19.159788"
         id="rect3588"
         style="fill:#000000;fill-opacity:0.6099291;stroke:none;filter:url(#filter4378)" />
      <image
         y="708.82202"
         x="776.44641"
         id="image4305"
         xlink:href="OSM-tw.png"
         height="30.423143"
         width="30.423143" />
    </g>
    <text
       xml:space="preserve"
       style="font-size:27.00691032px;font-style:normal;font-variant:normal;font-weight:normal;font-stretch:normal;text-align:start;line-height:125%;letter-spacing:0px;word-spacing:0px;writing-mode:lr-tb;text-anchor:start;fill:#82c7f0;fill-opacity:1;stroke:none;display:inline;font-family:Noto Sans T Chinese;-inkscape-font-specification:Noto Sans T Chinese"
       x="742.47412"
       y="362.30417"
       id="text3539"
       sodipodi:linespacing="125%"><tspan
         sodipodi:role="line"
         id="tspan3541"
         x="742.47412"
         y="362.30417">屬於全世界的開源地圖</tspan></text>
    <image
       width="259.31509"
       height="381.25082"
       xlink:href="bodged.png"
       id="image4454"
       x="394.87503"
       y="403.89789"
       style="stroke:#000000;stroke-width:1.00031734;stroke-miterlimit:4;stroke-opacity:1;stroke-dasharray:none;display:inline" />
    <path
       style="fill:url(#linearGradient3545);fill-opacity:1;fill-rule:nonzero;stroke:none;display:inline"
       d="m 452.81497,403.87835 c -0.7545,0.11728 -1.29262,0.83549 -1.1752,1.58999 0.11743,0.7545 0.83547,1.25806 1.58997,1.14061 0.75451,-0.11727 1.25806,-0.8009 1.14064,-1.55538 -0.11743,-0.7545 -0.80091,-1.29261 -1.55541,-1.17522 z m 85.8931,1.41718 c -0.53729,-0.0404 -1.05145,0.25119 -1.31347,0.76041 -0.34937,0.67898 -0.0913,1.51712 0.5876,1.86648 0.67896,0.34936 1.51711,0.0913 1.86649,-0.5876 0.34939,-0.67898 0.0913,-1.5171 -0.58759,-1.86648 -0.16976,-0.0874 -0.37394,-0.15945 -0.55303,-0.17281 z m 7.67333,4.63165 c -0.53727,-0.0404 -1.05141,0.25121 -1.31345,0.76043 -0.34938,0.67896 -0.0913,1.5171 0.5876,1.86648 0.67898,0.34938 1.51712,0.0913 1.86651,-0.5876 0.34937,-0.67896 0.0913,-1.51712 -0.58761,-1.8665 -0.16973,-0.0874 -0.37395,-0.15945 -0.55305,-0.17281 z m -92.70232,1.97018 c -0.7545,0.11727 -1.29261,0.83547 -1.17519,1.58998 0.11743,0.7545 0.83547,1.25804 1.58997,1.14061 0.75451,-0.11727 1.25805,-0.83547 1.14063,-1.58997 -0.11742,-0.75449 -0.8009,-1.25805 -1.55541,-1.14062 z m 99.9609,1.72822 c -0.53727,-0.0404 -1.05142,0.21664 -1.31346,0.72587 -0.34937,0.67897 -0.0913,1.51711 0.58762,1.86649 0.67894,0.34937 1.5171,0.0913 1.86648,-0.5876 0.34938,-0.67896 0.0567,-1.51712 -0.62217,-1.86649 -0.16974,-0.0876 -0.33937,-0.12481 -0.51847,-0.13833 z m 6.70554,2.69605 c -0.53726,-0.0404 -1.08598,0.21663 -1.34802,0.72585 -0.34938,0.67898 -0.0567,1.51712 0.62218,1.8665 0.67893,0.34938 1.51709,0.0913 1.86647,-0.5876 0.34939,-0.67898 0.0568,-1.51712 -0.62217,-1.8665 -0.16971,-0.0874 -0.33936,-0.12481 -0.51846,-0.13833 z m -105.87145,3.56015 c -0.0918,-0.005 -0.1822,0.0198 -0.27652,0.0344 -0.7545,0.11743 -1.29261,0.80092 -1.17519,1.55542 0.11743,0.7545 0.83546,1.29262 1.58997,1.17518 0.7545,-0.11743 1.25805,-0.83546 1.14063,-1.58995 -0.10274,-0.6602 -0.63654,-1.1447 -1.27889,-1.1752 z m 113.82131,0.10376 c -0.53728,-0.0404 -1.08598,0.21663 -1.34802,0.72585 -0.34938,0.67898 -0.0567,1.51712 0.62217,1.8665 0.67896,0.34936 1.48255,0.0913 1.83193,-0.5876 0.34938,-0.67897 0.0913,-1.51712 -0.5876,-1.86648 -0.16975,-0.0876 -0.33938,-0.12482 -0.51848,-0.13834 z m 6.18708,5.56491 c -0.53441,-0.0685 -1.05962,0.19652 -1.34802,0.69127 -0.38454,0.65971 -0.17576,1.48196 0.48391,1.8665 0.65968,0.38456 1.51649,0.1758 1.90104,-0.48391 0.38452,-0.65969 0.14116,-1.51651 -0.51846,-1.90105 -0.16494,-0.0961 -0.34034,-0.14981 -0.51847,-0.17281 z m -118.31472,2.35038 c -0.75451,0.11743 -1.29262,0.83549 -1.1752,1.58998 0.11743,0.7545 0.83547,1.25808 1.58997,1.14063 0.75451,-0.11743 1.25806,-0.80092 1.14063,-1.5554 -0.11738,-0.75451 -0.8009,-1.29262 -1.5554,-1.17521 z m 126.33377,1.00237 c -0.53445,-0.0685 -1.09424,0.19655 -1.38258,0.6913 -0.3846,0.65969 -0.14132,1.48196 0.5184,1.86649 0.65966,0.38456 1.48191,0.17579 1.8665,-0.4839 0.38458,-0.65967 0.17575,-1.51651 -0.48391,-1.90105 -0.16492,-0.096 -0.34033,-0.14997 -0.51841,-0.17284 z m 6.35989,5.42664 c -0.53446,-0.0685 -1.09424,0.19655 -1.38259,0.69132 -0.38457,0.65968 -0.14132,1.51651 0.51841,1.90104 0.65965,0.38456 1.48193,0.14132 1.86649,-0.51846 0.38457,-0.65968 0.17576,-1.51651 -0.48391,-1.90106 -0.1649,-0.0962 -0.34034,-0.14997 -0.5184,-0.17284 z m -132.24432,1.93565 c -0.75451,0.11743 -1.29262,0.83548 -1.1752,1.58996 0.11743,0.75451 0.83547,1.25807 1.58997,1.14064 0.75451,-0.11743 1.25806,-0.83547 1.14063,-1.58998 -0.11738,-0.75449 -0.80089,-1.25806 -1.5554,-1.14062 z m 139.98679,2.10842 c -0.53445,-0.0685 -1.09424,0.19655 -1.38259,0.6913 -0.38456,0.65969 -0.17585,1.51653 0.4838,1.90105 0.65977,0.38456 1.51654,0.14133 1.90111,-0.51846 0.38459,-0.65969 0.17577,-1.48195 -0.48391,-1.8665 -0.16492,-0.096 -0.34032,-0.18452 -0.51841,-0.20739 z m 6.74005,2.28129 c -0.53445,-0.0685 -1.05959,0.16194 -1.34796,0.6567 -0.38459,0.65971 -0.17586,1.51654 0.48378,1.90107 0.65979,0.38454 1.51653,0.14116 1.90113,-0.51846 0.38458,-0.65969 0.17575,-1.48196 -0.48391,-1.8665 -0.1649,-0.0962 -0.37486,-0.14997 -0.55304,-0.17281 z m -15.83059,1.45169 c -0.64175,0.0415 -1.18747,0.54792 -1.27885,1.20977 -0.10517,0.75641 0.41876,1.45097 1.1751,1.55541 0.75641,0.10454 1.45105,-0.41879 1.55545,-1.17519 0.10406,-0.75642 -0.41875,-1.48554 -1.17518,-1.58999 -0.0951,-0.0126 -0.18482,-0.005 -0.27652,0 z m -128.37304,2.00474 c -0.0918,-0.005 -0.1822,0.02 -0.2765,0.0344 -0.75451,0.11743 -1.29262,0.8009 -1.17521,1.5554 0.11738,0.7545 0.83547,1.29264 1.58998,1.17521 0.7545,-0.11727 1.25805,-0.83547 1.14062,-1.58998 -0.10284,-0.66018 -0.63654,-1.1447 -1.27889,-1.1752 z m 151.84247,1.07153 c -0.64295,0.017 -1.19675,0.48274 -1.31358,1.14061 -0.13315,0.75186 0.3543,1.45662 1.10609,1.59 0.7519,0.13331 1.49118,-0.35423 1.6246,-1.10609 0.13331,-0.75186 -0.3888,-1.4566 -1.1406,-1.58995 -0.094,-0.0167 -0.18471,-0.0369 -0.27651,-0.0344 z m 8.88306,1.72824 c -0.64284,0.017 -1.19678,0.48275 -1.31347,1.14061 -0.1333,0.75186 0.35428,1.45662 1.10609,1.58999 0.75178,0.1333 1.49119,-0.35424 1.62446,-1.10609 0.13331,-0.75183 -0.38877,-1.45659 -1.14056,-1.58996 -0.094,-0.0167 -0.18471,-0.0368 -0.27652,-0.0344 z m 7.77699,0.34562 c -0.64285,0.017 -1.19665,0.48278 -1.31336,1.14064 -0.13331,0.75186 0.35417,1.45662 1.10608,1.58996 0.75179,0.1333 1.45658,-0.35419 1.58985,-1.10605 0.13331,-0.75185 -0.35417,-1.45661 -1.10607,-1.58998 -0.0938,-0.0167 -0.1846,-0.0371 -0.2765,-0.0344 z m -42.16885,1.79736 c -0.64165,0.0415 -1.18748,0.54792 -1.27884,1.20977 -0.10407,0.75641 0.41877,1.45099 1.17518,1.55541 0.75646,0.10454 1.48557,-0.41881 1.58999,-1.17519 0.10406,-0.75642 -0.45339,-1.48554 -1.20983,-1.58999 -0.094,-0.0126 -0.18481,-0.005 -0.2765,0 z m 50.22246,0.89869 c -0.64285,0.017 -1.19676,0.48277 -1.31347,1.14064 -0.1333,0.75186 0.35428,1.4566 1.10608,1.58997 0.75179,0.1333 1.45657,-0.35422 1.58998,-1.10608 0.13331,-0.75185 -0.35429,-1.45658 -1.10609,-1.58998 -0.094,-0.0167 -0.18471,-0.0368 -0.2765,-0.0344 z m 8.19187,1.31345 c -0.64296,0.017 -1.23139,0.48278 -1.34807,1.14064 -0.1333,0.75184 0.38878,1.45662 1.14058,1.58996 0.75191,0.1333 1.4567,-0.35419 1.59007,-1.10605 0.13315,-0.75185 -0.35427,-1.45661 -1.10606,-1.58998 -0.094,-0.0167 -0.18471,-0.0371 -0.27652,-0.0344 z m -183.95301,0.58757 c -0.75451,0.11727 -1.29262,0.83547 -1.17519,1.58997 0.11738,0.75449 0.83547,1.25805 1.58997,1.14062 0.75451,-0.11743 1.25806,-0.8009 1.14063,-1.55541 -0.11738,-0.75449 -0.80091,-1.29261 -1.55541,-1.17518 z m 192.00652,0.17281 c -0.64286,0.017 -1.23129,0.48276 -1.34807,1.14064 -0.13315,0.75184 0.38888,1.45662 1.14069,1.58995 0.75179,0.13331 1.45658,-0.3542 1.58995,-1.10604 0.13331,-0.75186 -0.35426,-1.45662 -1.10604,-1.58999 -0.094,-0.0167 -0.18473,-0.0371 -0.27653,-0.0344 z m -67.40104,7.01662 c -0.64174,0.0415 -1.18748,0.54791 -1.27895,1.20975 -0.10407,0.75642 0.45338,1.45099 1.20982,1.55542 0.75645,0.10454 1.45095,-0.41878 1.55536,-1.1752 0.10517,-0.7564 -0.45329,-1.45097 -1.2097,-1.5554 -0.0951,-0.0126 -0.18484,-0.0404 -0.27653,-0.0344 z m -122.91182,1.24432 c -0.75449,0.11743 -1.2926,0.83549 -1.17519,1.58999 0.11738,0.75448 0.83547,1.25804 1.58998,1.14062 0.7545,-0.11742 1.25805,-0.83548 1.14062,-1.58998 -0.11738,-0.75448 -0.8009,-1.25804 -1.55541,-1.14063 z m 122.66993,6.67098 c -0.64174,0.0415 -1.18758,0.54792 -1.27895,1.20976 -0.10406,0.75642 0.45338,1.45099 1.20972,1.55542 0.75642,0.10454 1.45104,-0.41882 1.55545,-1.1752 0.10407,-0.75643 -0.41877,-1.45099 -1.17521,-1.55542 -0.0951,-0.0126 -0.21942,-0.0404 -0.31101,-0.0344 z m -122.28971,1.8665 c -0.0918,-0.005 -0.18221,0.0198 -0.27652,0.0344 -0.7545,0.11727 -1.29262,0.80092 -1.17519,1.5554 0.11738,0.7545 0.83546,1.29264 1.58996,1.17522 0.75451,-0.11743 1.25806,-0.83549 1.14065,-1.58999 -0.10284,-0.66018 -0.63655,-1.1447 -1.2789,-1.1752 z m 120.14659,5.7723 c -0.64163,0.0415 -1.18748,0.54791 -1.27884,1.20975 -0.10407,0.7564 0.41875,1.45098 1.17521,1.5554 0.75642,0.10454 1.45094,-0.41878 1.55545,-1.17519 0.10407,-0.7564 -0.41888,-1.45097 -1.17529,-1.55542 -0.0938,-0.0126 -0.18484,-0.0404 -0.27653,-0.0344 z m -118.24554,2.10842 c -0.75451,0.11743 -1.29262,0.83547 -1.17519,1.58998 0.11738,0.75449 0.83547,1.25806 1.58998,1.14063 0.7545,-0.11727 1.25805,-0.80092 1.14062,-1.55541 -0.11738,-0.7545 -0.8009,-1.29263 -1.55541,-1.1752 z m 117.31235,6.49817 c -0.64174,0.0415 -1.18749,0.5479 -1.27895,1.20974 -0.10406,0.75642 0.41886,1.45098 1.17532,1.55542 0.75633,0.10454 1.45091,-0.4188 1.55534,-1.1752 0.10407,-0.7564 -0.41875,-1.45098 -1.17519,-1.5554 -0.0951,-0.0126 -0.18484,-0.0404 -0.27652,-0.0344 z m -115.82607,1.72822 c -0.75451,0.11727 -1.29262,0.83547 -1.17519,1.58997 0.11738,0.7545 0.83547,1.25807 1.58997,1.14064 0.75451,-0.11727 1.25806,-0.83547 1.14063,-1.58998 -0.11738,-0.7545 -0.80091,-1.25806 -1.55541,-1.14063 z m 114.06334,6.74011 c -0.64176,0.0415 -1.1876,0.54791 -1.27897,1.20975 -0.10406,0.75642 0.41877,1.45098 1.17522,1.55542 0.75643,0.10454 1.45094,-0.4188 1.55533,-1.17521 0.10517,-0.7564 -0.41875,-1.45098 -1.17508,-1.5554 -0.0951,-0.0126 -0.18492,-0.0404 -0.2765,-0.0344 z m -113.33748,2.35038 c -0.0918,-0.005 -0.1822,0.0198 -0.27651,0.0344 -0.7545,0.11727 -1.29262,0.8009 -1.17521,1.5554 0.11739,0.7545 0.83548,1.29261 1.58998,1.1752 0.75451,-0.11743 1.25806,-0.83548 1.14063,-1.58999 -0.10267,-0.66018 -0.63655,-1.14467 -1.27889,-1.17518 z m 112.40417,5.70317 c -0.64173,0.0415 -1.18749,0.54792 -1.27884,1.20977 -0.10517,0.7564 0.41876,1.45096 1.1751,1.5554 0.75643,0.10454 1.45103,-0.41878 1.55545,-1.1752 0.10406,-0.75641 -0.41877,-1.45097 -1.1752,-1.55541 -0.0951,-0.0126 -0.18484,-0.0404 -0.27651,-0.0344 z m -110.71049,1.90106 c -0.75758,0.0957 -1.30543,0.79783 -1.20978,1.5554 0.0957,0.75758 0.79785,1.27085 1.55541,1.17521 0.75758,-0.0957 1.27086,-0.76329 1.17519,-1.52085 -0.0957,-0.75756 -0.76326,-1.30542 -1.52082,-1.20976 z m 109.91545,7.81158 c -0.64163,0.0415 -1.18748,0.54793 -1.27884,1.20978 -0.10407,0.75642 0.41875,1.45098 1.17521,1.55541 0.75642,0.10453 1.45094,-0.41879 1.55545,-1.1752 0.10406,-0.75642 -0.41888,-1.45097 -1.17529,-1.5554 -0.0938,-0.0126 -0.18484,-0.0404 -0.27653,-0.0344 z m -109.84634,0.27653 c -0.0915,-0.006 -0.1818,0.0226 -0.27652,0.0346 -0.75756,0.0957 -1.30541,0.76325 -1.20976,1.52085 0.0957,0.75756 0.79786,1.3054 1.55542,1.20975 0.75756,-0.0957 1.30541,-0.79784 1.20976,-1.5554 -0.0838,-0.66287 -0.63768,-1.16079 -1.2789,-1.20977 z m 101.34349,2.38497 c -0.0899,0.0193 -0.15468,0.0652 -0.24194,0.10375 -0.6986,0.30827 -1.03415,1.13333 -0.72588,1.83193 0.30829,0.69858 1.13335,0.99956 1.83194,0.69129 0.69861,-0.30827 0.99957,-1.13334 0.6913,-1.83193 -0.26973,-0.61128 -0.92698,-0.93138 -1.55542,-0.795 z m -5.6686,4.32056 c -0.17957,0.003 -0.34381,0.0267 -0.51848,0.10375 -0.69857,0.30826 -1.03413,1.13332 -0.72584,1.83192 0.30827,0.6986 1.13335,0.99956 1.83193,0.69129 0.69857,-0.30827 0.99956,-1.13334 0.69129,-1.83192 -0.2312,-0.52395 -0.74016,-0.80332 -1.2789,-0.79499 z m -93.39362,2.1776 c -0.75756,0.0957 -1.30541,0.79782 -1.20976,1.55539 0.0957,0.75759 0.79784,1.30543 1.55541,1.20976 0.75757,-0.0957 1.30541,-0.79784 1.20976,-1.55538 -0.0957,-0.7576 -0.79783,-1.30544 -1.55541,-1.20977 z m 84.1303,0.20738 c -0.17957,0.003 -0.37838,0.0267 -0.55303,0.10359 -0.69858,0.30827 -0.99957,1.13334 -0.6913,1.83194 0.30827,0.69856 1.13335,0.99955 1.83193,0.69127 0.6986,-0.30827 0.99957,-1.09875 0.6913,-1.79737 -0.23121,-0.52394 -0.74016,-0.83786 -1.2789,-0.82954 z m -5.53033,4.18232 c -0.1796,0.003 -0.3784,0.0266 -0.55304,0.10376 -0.69859,0.30827 -0.99956,1.13333 -0.69128,1.83193 0.30827,0.6986 1.13332,0.99957 1.83192,0.6913 0.69858,-0.30828 0.99954,-1.09878 0.69127,-1.79736 -0.23119,-0.52395 -0.74014,-0.83788 -1.27887,-0.82955 z m -78.94561,3.59472 c -0.75757,0.0957 -1.30542,0.79783 -1.20977,1.5554 0.0957,0.75757 0.79785,1.27086 1.55541,1.17521 0.75758,-0.0957 1.30541,-0.79784 1.20976,-1.55542 -0.0957,-0.75758 -0.79784,-1.27085 -1.5554,-1.17519 z m 1.86649,8.29551 c -0.75757,0.0957 -1.27084,0.79784 -1.1752,1.55541 0.0957,0.75757 0.76327,1.30541 1.52085,1.20977 0.75756,-0.0957 1.30541,-0.79785 1.20976,-1.55542 -0.0957,-0.75756 -0.79785,-1.3054 -1.55541,-1.20976 z m 1.65909,7.15487 c -0.75756,0.0957 -1.27084,0.79785 -1.17519,1.55541 0.0957,0.75758 0.76328,1.27086 1.52085,1.17518 0.75756,-0.0956 1.30541,-0.76325 1.20976,-1.52081 -0.0957,-0.75758 -0.79784,-1.30542 -1.55542,-1.20978 z m 76.3187,5.15014 c -0.17957,0.002 -0.37834,0.0269 -0.55303,0.10375 -0.69885,0.30769 -0.99898,1.13308 -0.69129,1.83192 0.30769,0.69883 1.09851,0.999 1.79736,0.6913 0.69884,-0.3077 1.03355,-1.09853 0.72586,-1.79736 -0.23079,-0.52414 -0.74016,-0.83744 -1.2789,-0.82956 z m -75.80023,3.59471 c -0.75756,0.0957 -1.30541,0.76329 -1.20976,1.52085 0.0957,0.75758 0.79784,1.30542 1.55542,1.20976 0.75756,-0.0957 1.27084,-0.79783 1.17519,-1.5554 -0.0957,-0.75758 -0.76327,-1.27085 -1.52085,-1.17521 z m 77.70129,3.59474 c -0.1796,0.002 -0.37831,0.0269 -0.55304,0.1036 -0.69883,0.30768 -0.99899,1.1331 -0.69129,1.83193 0.30771,0.69883 1.09852,1.03356 1.79736,0.72585 0.69885,-0.3077 1.03356,-1.13309 0.72584,-1.83193 -0.23075,-0.52413 -0.74012,-0.83742 -1.27887,-0.82956 z m -77.4939,5.04641 c -0.75756,0.0957 -1.30541,0.79787 -1.20976,1.55543 0.0957,0.75756 0.79785,1.30541 1.55541,1.20975 0.75756,-0.0957 1.27086,-0.79784 1.17519,-1.5554 -0.0957,-0.75756 -0.76326,-1.30542 -1.52084,-1.20978 z m 81.53796,2.21215 c -0.17959,0.002 -0.37831,0.0613 -0.55305,0.13834 -0.69882,0.30768 -0.99897,1.09853 -0.69127,1.79736 0.30769,0.69883 1.0985,1.03356 1.79736,0.72586 0.69884,-0.30771 1.03353,-1.13309 0.72584,-1.83194 -0.23075,-0.52412 -0.74016,-0.83742 -1.27888,-0.82954 z m -79.6369,5.6686 c -0.76072,0.066 -1.34485,0.72555 -1.27889,1.48628 0.066,0.76071 0.76012,1.34485 1.52085,1.27889 0.76073,-0.066 1.31029,-0.76011 1.24432,-1.52083 -0.066,-0.76074 -0.72555,-1.31031 -1.48628,-1.24434 z m 81.98731,2.28128 c -0.0918,0.002 -0.18355,0.0126 -0.27654,0.0344 -0.74377,0.17275 -1.20968,0.9153 -1.03693,1.65909 0.17273,0.74378 0.91531,1.20969 1.6591,1.03694 0.74378,-0.17273 1.20967,-0.91531 1.03694,-1.6591 -0.15107,-0.6508 -0.73972,-1.08844 -1.38257,-1.07149 z m -82.43664,6.22163 c -0.76075,0.066 -1.34486,0.72554 -1.2789,1.48627 0.066,0.76072 0.76012,1.31029 1.52085,1.24433 0.76073,-0.066 1.31029,-0.72556 1.24433,-1.48627 -0.066,-0.76073 -0.72555,-1.31031 -1.48628,-1.24433 z m 85.06354,1.34801 c -0.0918,0.002 -0.18354,0.0126 -0.27653,0.0344 -0.74377,0.17274 -1.1751,0.9153 -1.00237,1.65911 0.17273,0.74378 0.91532,1.20966 1.65912,1.03692 0.74378,-0.17274 1.17509,-0.94986 1.00236,-1.69365 -0.15107,-0.65083 -0.73971,-1.05391 -1.38258,-1.03694 z m -82.29839,7.05119 c -0.76073,0.066 -1.31029,0.76011 -1.24432,1.52084 0.066,0.76072 0.72555,1.31029 1.48628,1.24433 0.76073,-0.066 1.34485,-0.72557 1.27889,-1.48627 -0.066,-0.76073 -0.76012,-1.34487 -1.52085,-1.2789 z m 83.16251,0.41478 c -0.0918,0.002 -0.18357,0.0126 -0.27652,0.0346 -0.74377,0.17273 -1.2097,0.9153 -1.03694,1.65909 0.17273,0.74379 0.91532,1.20967 1.65909,1.03694 0.74379,-0.17276 1.20969,-0.91531 1.03696,-1.65911 -0.15107,-0.65081 -0.73975,-1.08845 -1.38259,-1.07149 z m -84.37227,7.39681 c -0.76073,0.066 -1.31029,0.72557 -1.24432,1.48628 0.066,0.76072 0.72555,1.34486 1.48628,1.27889 0.76072,-0.066 1.34485,-0.7601 1.27889,-1.52084 -0.066,-0.76072 -0.76012,-1.31029 -1.52085,-1.24433 z m 86.10051,0.82956 c -0.0918,0.002 -0.18356,0.0126 -0.27653,0.0344 -0.74379,0.17273 -1.2097,0.9153 -1.03694,1.65909 0.17273,0.74378 0.91531,1.20967 1.65909,1.03694 0.74379,-0.17275 1.20969,-0.91532 1.03695,-1.65911 -0.15107,-0.65081 -0.73973,-1.08844 -1.38257,-1.07149 z m -84.71791,7.56966 c -0.76251,0.0404 -1.35388,0.6892 -1.31346,1.45171 0.0404,0.76252 0.6892,1.35387 1.45171,1.31347 0.76251,-0.0404 1.35388,-0.6892 1.31346,-1.45173 -0.0404,-0.76251 -0.6892,-1.35388 -1.45171,-1.31345 z m 87.79413,0.65672 c -0.0918,0.002 -0.18353,0.0126 -0.2765,0.0344 -0.7438,0.17277 -1.20969,0.9499 -1.03694,1.69368 0.17273,0.74379 0.91533,1.17512 1.6591,1.00237 0.7438,-0.17275 1.20969,-0.91531 1.03694,-1.65909 -0.15107,-0.65081 -0.73973,-1.08845 -1.3826,-1.07151 z m 1.79738,7.63878 c -0.0918,0.002 -0.18355,0.0126 -0.27652,0.0346 -0.74379,0.17273 -1.20969,0.91531 -1.03695,1.65909 0.17274,0.74379 0.91534,1.20967 1.65912,1.03694 0.74379,-0.17276 1.20967,-0.91531 1.03694,-1.65909 -0.15107,-0.65083 -0.73974,-1.08845 -1.38259,-1.07152 z m -88.79654,0.20739 c -0.76251,0.0404 -1.35388,0.6892 -1.31344,1.45173 0.0404,0.7625 0.6892,1.35387 1.45171,1.31344 0.76251,-0.0404 1.35388,-0.6892 1.31346,-1.45172 -0.0404,-0.7625 -0.6892,-1.35387 -1.45173,-1.31345 z m 89.86804,8.29551 c -0.0918,0.002 -0.18353,0.0126 -0.27651,0.0346 -0.74379,0.17273 -1.20969,0.91529 -1.03694,1.65907 0.17273,0.74379 0.9153,1.20969 1.65909,1.03696 0.74379,-0.17277 1.20967,-0.91535 1.03694,-1.65913 -0.15107,-0.65079 -0.73972,-1.08843 -1.38258,-1.07147 z m 83.02425,0.24195 c -0.0918,-0.003 -0.21701,0.0184 -0.31115,0.0344 -0.75256,0.12921 -1.23513,0.83739 -1.10607,1.58997 0.12922,0.75257 0.83742,1.26981 1.59009,1.14064 0.75257,-0.12922 1.26977,-0.87197 1.14057,-1.62454 -0.11303,-0.65851 -0.67071,-1.12017 -1.31344,-1.14064 z m -173.51444,0.17283 c -0.76251,0.0404 -1.31932,0.68921 -1.2789,1.45172 0.0404,0.76252 0.68921,1.35389 1.45171,1.31346 0.76251,-0.0404 1.31932,-0.68922 1.2789,-1.45173 -0.0404,-0.7625 -0.68921,-1.35387 -1.45171,-1.31345 z m 165.77194,1.3826 c -0.75255,0.12922 -1.23524,0.87194 -1.10606,1.62452 0.12922,0.75258 0.83741,1.23525 1.58997,1.10608 0.75258,-0.12922 1.26979,-0.83741 1.14058,-1.58999 -0.12906,-0.75258 -0.87191,-1.26983 -1.62449,-1.14061 z m -8.53739,1.90104 c -0.75268,0.12922 -1.23527,0.8374 -1.10608,1.58997 0.12906,0.75259 0.83731,1.26983 1.58986,1.14064 0.75269,-0.12922 1.26988,-0.83739 1.14071,-1.58997 -0.12922,-0.75258 -0.87191,-1.26983 -1.62449,-1.14064 z m -7.81172,0.82956 c -0.0918,-2.8e-4 -0.18295,0.0162 -0.27653,0.0344 -0.74848,0.15075 -1.22231,0.87599 -1.07143,1.62453 0.15076,0.74853 0.876,1.25693 1.62446,1.10606 0.74859,-0.15075 1.22245,-0.91056 1.07157,-1.65909 -0.13189,-0.65497 -0.70488,-1.10415 -1.34807,-1.10607 z m -7.7425,1.24432 c -0.0918,-2.7e-4 -0.18293,0.0162 -0.27648,0.0344 -0.74848,0.15076 -1.22234,0.87602 -1.07148,1.62456 0.15076,0.7485 0.87602,1.22235 1.62449,1.07147 0.74859,-0.15075 1.22244,-0.87598 1.07156,-1.62452 -0.13189,-0.65497 -0.70489,-1.10416 -1.34809,-1.10608 z m -140.0558,2.59234 c -0.76251,0.0404 -1.35388,0.68921 -1.31345,1.45172 0.0404,0.76252 0.68921,1.35389 1.45171,1.31344 0.76251,-0.0404 1.35388,-0.68919 1.31346,-1.45171 -0.0404,-0.7625 -0.6892,-1.35387 -1.45172,-1.31345 z m 132.27883,0.0692 c -0.0918,-2.8e-4 -0.21755,0.0162 -0.31102,0.0344 -0.74859,0.15076 -1.22243,0.87603 -1.07155,1.62454 0.15075,0.74854 0.87599,1.25692 1.6246,1.10609 0.74847,-0.15076 1.25681,-0.91058 1.10604,-1.65912 -0.13205,-0.65496 -0.70499,-1.10416 -1.34807,-1.10606 z m -40.648,0.0692 c -0.0918,0.002 -0.18355,0.0126 -0.27652,0.0344 -0.74377,0.17275 -1.20968,0.91533 -1.03694,1.6591 0.17274,0.7438 0.91532,1.20969 1.65911,1.03696 0.74378,-0.17276 1.20967,-0.91535 1.03694,-1.65912 -0.15107,-0.65079 -0.73974,-1.08846 -1.38259,-1.07151 z m 32.629,0.41477 c -0.0918,-2.9e-4 -0.18293,0.0162 -0.27651,0.0344 -0.74848,0.15076 -1.25693,0.876 -1.10606,1.62452 0.15075,0.74854 0.876,1.22236 1.6246,1.07153 0.74848,-0.15076 1.25681,-0.87602 1.10604,-1.62456 -0.13205,-0.65497 -0.70499,-1.10415 -1.34807,-1.10607 z m -8.50289,2.7306 c -0.0918,-2.8e-4 -0.18295,0.0162 -0.27651,0.0344 -0.74848,0.15075 -1.22231,0.876 -1.07146,1.6245 0.15075,0.74854 0.87599,1.25695 1.62449,1.1061 0.74849,-0.15076 1.22231,-0.91059 1.07146,-1.65913 -0.13189,-0.65494 -0.7049,-1.10414 -1.34798,-1.10604 z m -8.50289,0.9678 c -0.0918,-2.6e-4 -0.18295,0.0162 -0.27653,0.0344 -0.74848,0.15076 -1.22231,0.876 -1.07155,1.62452 0.15075,0.74856 0.87612,1.22238 1.6246,1.07151 0.74847,-0.15075 1.22229,-0.87601 1.07155,-1.62454 -0.13205,-0.65496 -0.70501,-1.10415 -1.34807,-1.10606 z m -7.25857,1.48628 c -0.0918,-2.8e-4 -0.18295,0.0162 -0.27653,0.0344 -0.74848,0.15076 -1.22233,0.87601 -1.07143,1.62454 0.1506,0.74854 0.876,1.25692 1.62446,1.10607 0.74847,-0.15075 1.22232,-0.87599 1.07146,-1.62453 -0.13189,-0.65498 -0.7049,-1.13873 -1.34796,-1.14063 z m -9.22876,2.55779 c -0.0918,-2.7e-4 -0.21754,0.0162 -0.3111,0.0344 -0.74853,0.15075 -1.22234,0.876 -1.07148,1.62452 0.15076,0.74854 0.876,1.22236 1.62454,1.07151 0.74852,-0.15076 1.25691,-0.87602 1.10606,-1.62456 -0.13189,-0.65494 -0.70495,-1.10414 -1.34802,-1.10604 z M 480.6395,634.39 c -0.76251,0.0404 -1.35389,0.6892 -1.31346,1.45171 0.0404,0.76252 0.6892,1.35389 1.45171,1.31347 0.76252,-0.0404 1.35388,-0.72376 1.31346,-1.48628 -0.0404,-0.76251 -0.68921,-1.31931 -1.45171,-1.2789 z m 82.85139,0.48391 c -0.092,-2.6e-4 -0.18295,0.0162 -0.2765,0.0344 -0.74854,0.15075 -1.25692,0.876 -1.10607,1.62454 0.15075,0.74852 0.87601,1.25691 1.62453,1.10606 0.74854,-0.15076 1.25693,-0.876 1.10608,-1.62454 -0.13189,-0.65498 -0.70496,-1.13873 -1.34804,-1.14063 z m -8.57201,1.24434 c -0.0918,-2.9e-4 -0.18295,0.0162 -0.27653,0.0344 -0.74854,0.15076 -1.22234,0.876 -1.07149,1.62452 0.15075,0.74856 0.87601,1.22238 1.62455,1.07153 0.74851,-0.15076 1.22234,-0.87602 1.07148,-1.62456 -0.1319,-0.65494 -0.70495,-1.10414 -1.34801,-1.10604 z m -7.74248,2.76516 c -0.74853,0.15076 -1.22236,0.87601 -1.07151,1.62454 0.15075,0.74854 0.87601,1.25692 1.62455,1.10606 0.74853,-0.15076 1.22236,-0.876 1.07148,-1.62451 -0.15076,-0.74855 -0.876,-1.25695 -1.62452,-1.10609 z m -9.1942,0.79499 c -0.76004,0.0733 -1.31765,0.76079 -1.24433,1.52084 0.0734,0.76006 0.7608,1.31765 1.52086,1.24433 0.76005,-0.0734 1.31765,-0.76079 1.24434,-1.52083 -0.0734,-0.76008 -0.76081,-1.31769 -1.52087,-1.24434 z m -7.63878,0.86412 c -0.76003,0.0734 -1.31765,0.76078 -1.24433,1.52083 0.0734,0.76008 0.7608,1.31767 1.52086,1.24433 0.76005,-0.0734 1.31764,-0.76078 1.24432,-1.52083 -0.0734,-0.76006 -0.76078,-1.31767 -1.52085,-1.24433 z m -8.08815,0.76041 c -0.76003,0.0734 -1.31763,0.72623 -1.24431,1.48629 0.0734,0.76005 0.7608,1.31765 1.52084,1.24432 0.76007,-0.0733 1.31767,-0.76077 1.24432,-1.52085 -0.0734,-0.76005 -0.76078,-1.28308 -1.52085,-1.20976 z m -41.02819,0.34565 c -0.76251,0.0404 -1.35388,0.68921 -1.31344,1.45171 0.0404,0.76251 0.6892,1.35388 1.45171,1.31345 0.76251,-0.0404 1.35388,-0.68919 1.31346,-1.45169 -0.0404,-0.76253 -0.6892,-1.3539 -1.45173,-1.31347 z m 15.79604,0.13833 c -0.7636,5e-5 -1.38264,0.61899 -1.38259,1.38259 3e-5,0.76357 0.61899,1.38263 1.38259,1.38258 0.76358,-5e-5 1.38262,-0.61901 1.38257,-1.38258 -3e-5,-0.7636 -0.61899,-1.38262 -1.38257,-1.38259 z m -33.14748,0.65672 c -0.76344,0.0141 -1.36204,0.6537 -1.34801,1.41715 0.0146,0.76345 0.61913,1.36207 1.38258,1.34803 0.76346,-0.0141 1.39663,-0.65371 1.3826,-1.41716 -0.0146,-0.76344 -0.6537,-1.36206 -1.41717,-1.34802 z m -9.05592,0.20738 c -0.76345,0.0141 -1.39662,0.6537 -1.38259,1.41716 0.0142,0.76346 0.6537,1.36206 1.41715,1.34804 0.76346,-0.0142 1.36206,-0.61915 1.34802,-1.38261 -0.0141,-0.76344 -0.61913,-1.39661 -1.38258,-1.38259 z m 50.22238,0.0344 c -0.76359,4e-5 -1.38262,0.619 -1.38259,1.3826 4e-5,0.76357 0.619,1.38263 1.38259,1.38258 0.76358,-5e-5 1.38264,-0.61901 1.38259,-1.38258 -5e-5,-0.7636 -0.61901,-1.38263 -1.38259,-1.3826 z m -66.36407,0.13833 c -0.76345,0.0141 -1.39662,0.6537 -1.38258,1.41715 0.0142,0.76344 0.6537,1.36207 1.41715,1.34803 0.76345,-0.0141 1.36206,-0.61914 1.34802,-1.3826 -0.0141,-0.76344 -0.61913,-1.39661 -1.38259,-1.38258 z m 50.29154,0.20738 c -0.76359,5e-5 -1.38264,0.61901 -1.3826,1.38258 5e-5,0.7636 0.61901,1.38263 1.3826,1.3826 0.76358,-6e-5 1.38263,-0.619 1.38259,-1.3826 -5e-5,-0.76357 -0.61901,-1.38263 -1.38259,-1.38258 z m 25.0939,0 c -0.76359,5e-5 -1.38263,0.61901 -1.38258,1.38258 5e-5,0.7636 0.61899,1.38263 1.38258,1.3826 0.76358,-6e-5 1.38263,-0.619 1.38259,-1.3826 -5e-5,-0.76357 -0.61901,-1.38263 -1.38259,-1.38258 z m -41.30471,0.17291 c -0.76346,0.0141 -1.39662,0.61911 -1.38259,1.38257 0.0146,0.76343 0.6537,1.39663 1.41716,1.38258 0.76345,-0.0142 1.36205,-0.65369 1.34801,-1.41715 -0.0146,-0.76346 -0.61913,-1.36206 -1.38258,-1.348 z m -25.37044,0.38018 c -0.76345,0.0141 -1.36205,0.65371 -1.34802,1.41716 0.0141,0.76345 0.6537,1.36205 1.41715,1.34803 0.76345,-0.0142 1.36206,-0.6537 1.34802,-1.41715 -0.0142,-0.76347 -0.6537,-1.36206 -1.41715,-1.34804 z m -17.4897,0.72586 c -0.75571,0.10941 -1.25002,0.79969 -1.14063,1.55542 0.10938,0.75571 0.79969,1.28459 1.5554,1.17518 0.75572,-0.10941 1.28459,-0.79968 1.1752,-1.5554 -0.10938,-0.7557 -0.83426,-1.28458 -1.58997,-1.1752 z m -7.60422,1.1752 c -0.0917,-0.005 -0.18206,0.0208 -0.27652,0.0344 -0.75571,0.10942 -1.28458,0.7997 -1.1752,1.5554 0.10938,0.75571 0.83427,1.2846 1.58998,1.1752 0.75571,-0.10941 1.28459,-0.83426 1.1752,-1.58998 -0.0957,-0.66123 -0.67146,-1.13785 -1.31346,-1.17518 z m -7.56965,3.00711 c -0.17899,-0.0141 -0.37168,0.009 -0.55304,0.0692 -0.72543,0.23831 -1.137,1.03735 -0.89868,1.76279 0.23833,0.72543 1.03736,1.10243 1.7628,0.86412 0.72544,-0.23834 1.10244,-1.0028 0.86411,-1.72825 -0.17875,-0.54407 -0.63824,-0.92328 -1.17519,-0.9678 z m -8.88311,2.10846 c -0.17899,-0.0142 -0.37168,0.009 -0.55304,0.0692 -0.72543,0.23833 -1.10244,1.03736 -0.86411,1.76279 0.23832,0.72547 1.00279,1.10246 1.72823,0.86412 0.72544,-0.23832 1.137,-1.00278 0.89868,-1.72823 -0.17875,-0.54407 -0.67281,-0.92328 -1.20976,-0.9678 z m -7.39683,3.38733 c -0.0912,0.011 -0.18584,0.005 -0.27652,0.0344 -0.72544,0.23832 -1.13701,1.03735 -0.89868,1.76281 0.23833,0.72543 1.03736,1.10243 1.7628,0.8641 0.72543,-0.23833 1.10243,-1.0028 0.86411,-1.72823 -0.20854,-0.63477 -0.81293,-1.0074 -1.45171,-0.93323 z"
       id="path4469"
       inkscape:connector-curvature="0" />
    <g
       style="fill:#343434;fill-opacity:1;stroke:none;display:inline"
       transform="matrix(1.5720011,0,0,1.5720011,-1039.1832,285.0492)"
       id="g4278">
      <path
         inkscape:connector-curvature="0"
         id="path4280"
         d="m 1043,132.65625 0,21.84375 -7.25,0 12,12.625 12,-12.625 -7.25,0 0,-21.84375 -9.5,0 z"
         style="font-size:medium;font-style:normal;font-variant:normal;font-weight:normal;font-stretch:normal;text-indent:0;text-align:start;text-decoration:none;line-height:normal;letter-spacing:normal;word-spacing:normal;text-transform:none;direction:ltr;block-progression:tb;writing-mode:lr-tb;text-anchor:start;color:#000000;fill:#343434;fill-opacity:1;stroke:none;stroke-width:1;marker:none;visibility:visible;display:inline;overflow:visible;enable-background:accumulate;font-family:Bitstream Vera Sans;-inkscape-font-specification:Bitstream Vera Sans" />
    </g>
    <g
       id="g5724"
       transform="matrix(1.5720011,0,0,1.5720011,-1035.7706,434.40946)"
       style="fill:#343434;fill-opacity:1;stroke:none;display:inline">
      <path
         style="font-size:medium;font-style:normal;font-variant:normal;font-weight:normal;font-stretch:normal;text-indent:0;text-align:start;text-decoration:none;line-height:normal;letter-spacing:normal;word-spacing:normal;text-transform:none;direction:ltr;block-progression:tb;writing-mode:lr-tb;text-anchor:start;color:#000000;fill:#343434;fill-opacity:1;stroke:none;stroke-width:1;marker:none;visibility:visible;display:inline;overflow:visible;enable-background:accumulate;font-family:Bitstream Vera Sans;-inkscape-font-specification:Bitstream Vera Sans"
         d="m 1043,132.65625 0,21.84375 -7.25,0 12,12.625 12,-12.625 -7.25,0 0,-21.84375 -9.5,0 z"
         id="path4494"
         inkscape:connector-curvature="0" />
    </g>
    <rect
       rx="5.034688"
       ry="5.034687"
       style="opacity:0.55;fill:#000000;fill-opacity:1;stroke:none;display:inline"
       id="rect4353"
       width="81.986877"
       height="30.771242"
       x="485.18073"
       y="413.00964" />
    <text
       xml:space="preserve"
       style="font-size:15.72001076px;font-style:normal;font-variant:normal;font-weight:normal;font-stretch:normal;text-align:start;line-height:125%;letter-spacing:0px;word-spacing:0px;writing-mode:lr-tb;text-anchor:start;fill:#ffffff;fill-opacity:1;stroke:none;display:inline;font-family:Noto Sans T Chinese;-inkscape-font-specification:Noto Sans T Chinese"
       x="495.39734"
       y="434.34525"
       id="text4355"
       sodipodi:linespacing="125%"><tspan
         sodipodi:role="line"
         id="tspan4357"
         x="495.39734"
         y="434.34525">GPS軌跡</tspan></text>
    <g
       transform="matrix(1.5720011,0,0,1.5720011,327.89043,-753.39435)"
       id="g4359"
       style="display:inline">
      <rect
         rx="3.2027254"
         ry="3.2027249"
         style="opacity:0.55;fill:#000000;fill-opacity:1;stroke:none"
         id="rect4318"
         width="53.908852"
         height="19.574568"
         x="147.98581"
         y="848.19678" />
      <text
         xml:space="preserve"
         style="font-size:10px;font-style:normal;font-variant:normal;font-weight:normal;font-stretch:normal;text-align:start;line-height:125%;letter-spacing:0px;word-spacing:0px;writing-mode:lr-tb;text-anchor:start;fill:#ffffff;fill-opacity:1;stroke:none;font-family:Noto Sans T Chinese;-inkscape-font-specification:Noto Sans T Chinese"
         x="155.18524"
         y="861.76904"
         id="text4320"
         sodipodi:linespacing="125%"><tspan
           sodipodi:role="line"
           id="tspan4322"
           x="155.18524"
           y="861.76904">進行編輯</tspan></text>
    </g>
    <g
       transform="matrix(1.5720011,0,0,1.5720011,328.573,-761.90885)"
       id="g4324"
       style="display:inline">
      <rect
         y="958.84839"
         x="144.03371"
         height="19.574568"
         width="57.42675"
         id="rect4286"
         style="opacity:0.55;fill:#000000;fill-opacity:1;stroke:none"
         ry="3.2027249"
         rx="3.2027256" />
      <text
         sodipodi:linespacing="125%"
         id="text4288"
         y="972.44067"
         x="150.05174"
         style="font-size:10px;font-style:normal;font-variant:normal;font-weight:normal;font-stretch:normal;text-align:start;line-height:125%;letter-spacing:0px;word-spacing:0px;writing-mode:lr-tb;text-anchor:start;fill:#ffffff;fill-opacity:1;stroke:none;font-family:Noto Sans T Chinese;-inkscape-font-specification:Noto Sans T Chinese"
         xml:space="preserve"><tspan
           y="972.44067"
           x="150.05174"
           id="tspan4290"
           sodipodi:role="line">完成地圖！</tspan></text>
    </g>
    <rect
       y="413.00964"
       x="576.34314"
       height="30.771242"
       width="68.925903"
       id="rect4267"
       style="opacity:0.55;fill:#000000;fill-opacity:1;stroke:none;display:inline"
       ry="5.034687"
       rx="5.034687" />
    <text
       sodipodi:linespacing="125%"
       id="text4282"
       y="434.34525"
       x="587.57977"
       style="font-size:15.72001076px;font-style:normal;font-variant:normal;font-weight:normal;font-stretch:normal;text-align:start;line-height:125%;letter-spacing:0px;word-spacing:0px;writing-mode:lr-tb;text-anchor:start;fill:#ffffff;fill-opacity:1;stroke:none;display:inline;font-family:Noto Sans T Chinese;-inkscape-font-specification:Noto Sans T Chinese"
       xml:space="preserve"><tspan
         y="434.34525"
         x="587.57977"
         id="tspan4284"
         sodipodi:role="line">航照圖</tspan></text>
    <rect
       y="403.89786"
       x="394.87503"
       height="381.28625"
       width="259.315"
       id="rect3738"
       style="fill:none;stroke:#555555;stroke-opacity:1;display:inline" />
    <flowRoot
       xml:space="preserve"
       id="flowRoot5732"
       style="font-size:10px;font-style:normal;font-variant:normal;font-weight:normal;font-stretch:normal;text-align:start;line-height:150%;letter-spacing:0px;word-spacing:0px;writing-mode:lr-tb;text-anchor:start;fill:#000000;fill-opacity:1;stroke:none;display:inline;font-family:Noto Sans CJK TC;-inkscape-font-specification:Noto Sans CJK TC"
       transform="translate(-1519.2596,1647.6861)"><flowRegion
         id="flowRegion5734"><rect
           id="rect5736"
           width="267.18719"
           height="657.55969"
           x="1561.2917"
           y="-732.34894"
           style="font-size:10px;font-style:normal;font-variant:normal;font-weight:normal;font-stretch:normal;text-align:start;line-height:150%;writing-mode:lr-tb;text-anchor:start;font-family:Noto Sans CJK TC;-inkscape-font-specification:Noto Sans CJK TC" /></flowRegion><flowPara
         id="flowPara4451"
         style="font-size:10px;font-style:normal;font-variant:normal;font-weight:normal;font-stretch:normal;text-align:start;line-height:150%;writing-mode:lr-tb;text-anchor:start;font-family:Noto Sans CJK TC;-inkscape-font-specification:Noto Sans CJK TC">原創：mcdlee (CC0), lilychen(CC0)</flowPara><flowPara
         id="flowPara3049"
         style="font-size:10px;font-style:normal;font-variant:normal;font-weight:normal;font-stretch:normal;text-align:start;line-height:150%;writing-mode:lr-tb;text-anchor:start;font-family:Noto Sans CJK TC;-inkscape-font-specification:Noto Sans CJK TC">How does OSM work? https://github.com/gravitystorm/openstreetmap-promotional-leaflets (All contents are in the public domain except for those derived from OSM which are CC BY-SA, and except for non-OSM logos. )</flowPara><flowPara
         id="flowPara3051"
         style="font-size:10px;font-style:normal;font-variant:normal;font-weight:normal;font-stretch:normal;text-align:start;line-height:150%;writing-mode:lr-tb;text-anchor:start;font-family:Noto Sans CJK TC;-inkscape-font-specification:Noto Sans CJK TC">翻譯： mcdlee (CC0)</flowPara><flowPara
         id="flowPara4455"
         style="font-size:10px;font-style:normal;font-variant:normal;font-weight:normal;font-stretch:normal;text-align:start;line-height:150%;writing-mode:lr-tb;text-anchor:start;font-family:Noto Sans CJK TC;-inkscape-font-specification:Noto Sans CJK TC" /><flowPara
         id="flowPara3053"
         style="font-size:10px;font-style:normal;font-variant:normal;font-weight:normal;font-stretch:normal;text-align:start;line-height:150%;writing-mode:lr-tb;text-anchor:start;font-family:Noto Sans CJK TC;-inkscape-font-specification:Noto Sans CJK TC" /><flowPara
         id="flowPara3055"
         style="font-size:10px;font-style:normal;font-variant:normal;font-weight:normal;font-stretch:normal;text-align:start;line-height:150%;writing-mode:lr-tb;text-anchor:start;font-family:Noto Sans CJK TC;-inkscape-font-specification:Noto Sans CJK TC" /></flowRoot>    <flowRoot
       transform="translate(-1518.9896,1136.3927)"
       style="font-size:10px;font-style:normal;font-variant:normal;font-weight:normal;font-stretch:normal;text-align:start;line-height:170.00000477%;letter-spacing:0px;word-spacing:0px;writing-mode:lr-tb;text-anchor:start;fill:#000000;fill-opacity:1;stroke:none;display:inline;font-family:Noto Sans T Chinese;-inkscape-font-specification:Noto Sans T Chinese"
       id="flowRoot5181"
       xml:space="preserve"><flowRegion
         id="flowRegion5183"><rect
           style="font-size:10px;font-style:normal;font-variant:normal;font-weight:normal;font-stretch:normal;text-align:start;line-height:170.00000477%;writing-mode:lr-tb;text-anchor:start;font-family:Noto Sans T Chinese;-inkscape-font-specification:Noto Sans T Chinese"
           y="-732.34894"
           x="1561.2917"
           height="657.55969"
           width="267.18719"
           id="rect5185" /></flowRegion><flowPara
         id="flowPara5741"
         style="font-size:10px;font-style:normal;font-variant:normal;font-weight:normal;font-stretch:normal;text-align:start;line-height:170.00000477%;writing-mode:lr-tb;text-anchor:start;font-family:Noto Sans T Chinese;-inkscape-font-specification:Noto Sans T Chinese">你可以採取下列幾種方式為 OSM 收集地圖資料。GPS 裝置加上手寫的筆記是比較傳統的方式；GPS軌跡指的是你經過的道路的紀錄。你可以用筆記本或是相機紀錄你在路程中看到的細節。</flowPara><flowPara
         id="flowPara5962"
         style="font-size:10px;font-style:normal;font-variant:normal;font-weight:normal;font-stretch:normal;text-align:start;line-height:170.00000477%;writing-mode:lr-tb;text-anchor:start;font-family:Noto Sans T Chinese;-inkscape-font-specification:Noto Sans T Chinese" /><flowPara
         id="flowPara5964"
         style="font-size:10px;font-style:normal;font-variant:normal;font-weight:normal;font-stretch:normal;text-align:start;line-height:170.00000477%;writing-mode:lr-tb;text-anchor:start;font-family:Noto Sans T Chinese;-inkscape-font-specification:Noto Sans T Chinese">針對 OSM 特別設計的編輯器會將下列圖層整合好一併呈現給你：航照圖、使用者收集到的GPS軌跡，當然還有已經在OSM 資料庫的地圖資料。交通路網、建築物輪廓、森林和湖泊可以依據航照圖描繪，但是其他的資訊，例如：門牌號碼、街道名稱或是郵局、便利商店這類常被標注於地圖的設施，就無法單靠航照圖得知。如果你對當地夠熟悉，你可以依據你所知道的將這些資訊補上，亦或是你可以前往當地去踏查。</flowPara><flowPara
         id="flowPara5966"
         style="font-size:10px;font-style:normal;font-variant:normal;font-weight:normal;font-stretch:normal;text-align:start;line-height:170.00000477%;writing-mode:lr-tb;text-anchor:start;font-family:Noto Sans T Chinese;-inkscape-font-specification:Noto Sans T Chinese" /><flowPara
         id="flowPara5968"
         style="font-size:10px;font-style:normal;font-variant:normal;font-weight:normal;font-stretch:normal;text-align:start;line-height:170.00000477%;writing-mode:lr-tb;text-anchor:start;font-family:Noto Sans T Chinese;-inkscape-font-specification:Noto Sans T Chinese">圖客 (mapper，我們對像你一樣的志願踏查者的稱呼) 也常常善用我們的航照圖。其中，最常使用的航照圖是微軟提供的 Bing 空照圖、MapBox 空照圖等等。台灣政府亦提供內政部國土測繪中心的電子地圖。</flowPara><flowPara
         id="flowPara5970"
         style="font-size:10px;font-style:normal;font-variant:normal;font-weight:normal;font-stretch:normal;text-align:start;line-height:170.00000477%;writing-mode:lr-tb;text-anchor:start;font-family:Noto Sans T Chinese;-inkscape-font-specification:Noto Sans T Chinese" /><flowPara
         id="flowPara5972"
         style="font-size:10px;font-style:normal;font-variant:normal;font-weight:normal;font-stretch:normal;text-align:start;line-height:170.00000477%;writing-mode:lr-tb;text-anchor:start;font-family:Noto Sans T Chinese;-inkscape-font-specification:Noto Sans T Chinese">最後，你所提供的資訊儲存後將會上傳到 OSM 的中央資料庫，地圖也建立了。在很短的時間內，你所提供的更新將可以被所有人看見！</flowPara><flowPara
         id="flowPara5974"
         style="font-size:10px;font-style:normal;font-variant:normal;font-weight:normal;font-stretch:normal;text-align:start;line-height:170.00000477%;writing-mode:lr-tb;text-anchor:start;font-family:Noto Sans T Chinese;-inkscape-font-specification:Noto Sans T Chinese" /></flowRoot>    <flowRoot
       xml:space="preserve"
       id="flowRoot3977"
       style="font-size:10px;font-style:normal;font-variant:normal;font-weight:normal;font-stretch:normal;text-align:start;line-height:150%;letter-spacing:0px;word-spacing:0px;writing-mode:lr-tb;text-anchor:start;fill:#000000;fill-opacity:1;stroke:none;display:inline;font-family:Noto Sans T Chinese;-inkscape-font-specification:Noto Sans T Chinese"
       transform="translate(-1146.7874,1681.5361)"><flowRegion
         id="flowRegion3979"><rect
           id="rect3981"
           width="267.18719"
           height="657.55969"
           x="1561.2917"
           y="-732.34894"
           style="font-size:10px;font-style:normal;font-variant:normal;font-weight:normal;font-stretch:normal;text-align:start;line-height:150%;writing-mode:lr-tb;text-anchor:start;font-family:Noto Sans T Chinese;-inkscape-font-specification:Noto Sans T Chinese" /></flowRegion><flowPara
         id="flowPara3807"
         style="font-size:10px;font-style:normal;font-variant:normal;font-weight:normal;font-stretch:normal;text-align:start;line-height:150%;writing-mode:lr-tb;text-anchor:start;font-family:Noto Sans T Chinese;-inkscape-font-specification:Noto Sans T Chinese">飲水地圖：watergo.teia.tw</flowPara><flowPara
         id="flowPara3809"
         style="font-size:10px;font-style:normal;font-variant:normal;font-weight:normal;font-stretch:normal;text-align:start;line-height:150%;writing-mode:lr-tb;text-anchor:start;font-family:Noto Sans T Chinese;-inkscape-font-specification:Noto Sans T Chinese">輪椅地圖：wheelmap.org/zh_TW/map</flowPara><flowPara
         id="flowPara3811"
         style="font-size:10px;font-style:normal;font-variant:normal;font-weight:normal;font-stretch:normal;text-align:start;line-height:150%;writing-mode:lr-tb;text-anchor:start;font-family:Noto Sans T Chinese;-inkscape-font-specification:Noto Sans T Chinese">素食地圖：veggiekarte.de</flowPara><flowPara
         id="flowPara3815"
         style="font-size:10px;font-style:normal;font-variant:normal;font-weight:normal;font-stretch:normal;text-align:start;line-height:150%;writing-mode:lr-tb;text-anchor:start;font-family:Noto Sans T Chinese;-inkscape-font-specification:Noto Sans T Chinese">消防地圖：openfiremap.org</flowPara><flowPara
         id="flowPara4463"
         style="font-size:10px;font-style:normal;font-variant:normal;font-weight:normal;font-stretch:normal;text-align:start;line-height:150%;writing-mode:lr-tb;text-anchor:start;font-family:Noto Sans T Chinese;-inkscape-font-specification:Noto Sans T Chinese" /></flowRoot>    <flowRoot
       xml:space="preserve"
       id="flowRoot4442"
       style="font-size:10px;font-style:normal;font-variant:normal;font-weight:normal;font-stretch:normal;text-align:start;line-height:170.00000477%;letter-spacing:0px;word-spacing:0px;writing-mode:lr-tb;text-anchor:start;fill:#000000;fill-opacity:1;stroke:none;display:inline;font-family:Noto Sans T Chinese;-inkscape-font-specification:Noto Sans T Chinese"
       transform="translate(-1166.7813,1583.4839)"><flowRegion
         id="flowRegion4444"><rect
           id="rect4446"
           width="267.18719"
           height="657.55969"
           x="1561.2917"
           y="-732.34894"
           style="font-size:10px;font-style:normal;font-variant:normal;font-weight:normal;font-stretch:normal;text-align:start;line-height:170.00000477%;writing-mode:lr-tb;text-anchor:start;font-family:Noto Sans T Chinese;-inkscape-font-specification:Noto Sans T Chinese" /></flowRegion><flowPara
         id="flowPara4440">如先前所提，OSM 因為開放的資料結構和開放討論的文化，以及來自世界各地不同專業背景的參與者，圖資內容相當自由多元，可說是個超越地圖、涵蓋人文的地理資料庫。例如飲水地圖、輪椅地圖、素食地圖，等等。都是立於OSM圖資基礎上，針對特定需求所發展的專案。</flowPara></flowRoot>    <text
       sodipodi:linespacing="125%"
       id="text3321"
       y="901.6781"
       x="42.021698"
       style="font-size:14px;font-style:normal;font-variant:normal;font-weight:500;font-stretch:normal;text-align:start;line-height:125%;letter-spacing:0px;word-spacing:0px;writing-mode:lr-tb;text-anchor:start;fill:#3f78c2;fill-opacity:1;stroke:none;display:inline;font-family:Noto Sans T Chinese;-inkscape-font-specification:Noto Sans T Chinese Medium"
       xml:space="preserve"><tspan
         id="tspan3325"
         y="901.6781"
         x="42.021698"
         sodipodi:role="line">關於傳單</tspan></text>
    <text
       sodipodi:linespacing="125%"
       id="text3331"
       y="385.39804"
       x="42.291698"
       style="font-size:16px;font-style:normal;font-variant:normal;font-weight:500;font-stretch:normal;text-align:start;line-height:125%;letter-spacing:0px;word-spacing:0px;writing-mode:lr-tb;text-anchor:start;fill:#3f78c2;fill-opacity:1;stroke:none;display:inline;font-family:Noto Sans T Chinese;-inkscape-font-specification:Noto Sans T Chinese Medium"
       xml:space="preserve"><tspan
         id="tspan3335"
         y="385.39804"
         x="42.291698"
         sodipodi:role="line">好像很有趣？告訴我地圖怎麼畫吧！</tspan></text>
    <text
       sodipodi:linespacing="125%"
       id="text4450"
       y="832.47931"
       x="394.80014"
       style="font-size:16px;font-style:normal;font-variant:normal;font-weight:500;font-stretch:normal;text-align:start;line-height:125%;letter-spacing:0px;word-spacing:0px;writing-mode:lr-tb;text-anchor:start;fill:#3f78c2;fill-opacity:1;stroke:none;display:inline;font-family:Noto Sans T Chinese;-inkscape-font-specification:Noto Sans T Chinese Medium"
       xml:space="preserve"><tspan
         y="832.47931"
         x="394.80014"
         sodipodi:role="line"
         id="tspan4452">在地的故事·在地的地圖</tspan></text>
    <text
       xml:space="preserve"
       style="font-size:28px;font-style:normal;font-variant:normal;font-weight:normal;font-stretch:normal;text-align:start;line-height:125%;letter-spacing:0px;word-spacing:0px;writing-mode:lr-tb;text-anchor:start;fill:#4e9a06;fill-opacity:1;stroke:none;display:inline;font-family:Ubuntu Condensed;-inkscape-font-specification:'Ubuntu Condensed,'"
       x="401.23804"
       y="955.73688"
       id="text4498"
       sodipodi:linespacing="125%"><tspan
         sodipodi:role="line"
         id="tspan4500"
         x="401.23804"
         y="955.73688">.</tspan></text>
    <text
       xml:space="preserve"
       style="font-size:28px;font-style:normal;font-variant:normal;font-weight:normal;font-stretch:normal;text-align:start;line-height:125%;letter-spacing:0px;word-spacing:0px;writing-mode:lr-tb;text-anchor:start;fill:#4e9a06;fill-opacity:1;stroke:none;display:inline;font-family:Ubuntu Condensed;-inkscape-font-specification:'Ubuntu Condensed,'"
       x="401.23804"
       y="970.81177"
       id="text4502"
       sodipodi:linespacing="125%"><tspan
         sodipodi:role="line"
         id="tspan4504"
         x="401.23804"
         y="970.81177">.</tspan></text>
    <text
       xml:space="preserve"
       style="font-size:28px;font-style:normal;font-variant:normal;font-weight:normal;font-stretch:normal;text-align:start;line-height:125%;letter-spacing:0px;word-spacing:0px;writing-mode:lr-tb;text-anchor:start;fill:#4e9a06;fill-opacity:1;stroke:none;display:inline;font-family:Ubuntu Condensed;-inkscape-font-specification:'Ubuntu Condensed,'"
       x="401.23804"
       y="985.88672"
       id="text4506"
       sodipodi:linespacing="125%"><tspan
         sodipodi:role="line"
         id="tspan4508"
         x="401.23804"
         y="985.88672">.</tspan></text>
    <text
       sodipodi:linespacing="125%"
       id="text5545-8"
       y="1000.9616"
       x="401.23804"
       style="font-size:28px;font-style:normal;font-variant:normal;font-weight:normal;font-stretch:normal;text-align:start;line-height:125%;letter-spacing:0px;word-spacing:0px;writing-mode:lr-tb;text-anchor:start;fill:#4e9a06;fill-opacity:1;stroke:none;display:inline;font-family:Ubuntu Condensed;-inkscape-font-specification:'Ubuntu Condensed,'"
       xml:space="preserve"><tspan
         y="1000.9616"
         x="401.23804"
         id="tspan5547-1"
         sodipodi:role="line">.</tspan></text>
    <g
       transform="translate(71.951266,40.587803)"
       id="g4637"
       style="display:inline">
      <g
         id="g4612">
        <image
           width="44.263062"
           height="44.263062"
           xlink:href="iD.png"
           id="image3617-8"
           x="114.71057"
           y="775.87933"
           style="display:inline" />
        <text
           xml:space="preserve"
           style="font-size:10px;font-style:normal;font-variant:normal;font-weight:normal;font-stretch:normal;text-align:start;line-height:125%;letter-spacing:0px;word-spacing:0px;writing-mode:lr-tb;text-anchor:start;fill:#000000;fill-opacity:1;stroke:none;font-family:Noto Sans T Chinese;-inkscape-font-specification:Noto Sans T Chinese"
           x="116.76708"
           y="836.86487"
           id="text4606"
           sodipodi:linespacing="125%"><tspan
             sodipodi:role="line"
             id="tspan4608"
             x="116.76708"
             y="836.86487">iD editor</tspan></text>
      </g>
    </g>
    <g
       transform="translate(2.742695,49.645053)"
       id="g4632"
       style="display:inline">
      <image
         y="769.42419"
         x="266.2088"
         id="image3628"
         xlink:href="JOSM_Logo_2014.png"
         height="39.726562"
         width="38.702034" />
      <text
         xml:space="preserve"
         style="font-size:10px;font-style:normal;font-variant:normal;font-weight:normal;font-stretch:normal;text-align:start;line-height:125%;letter-spacing:0px;word-spacing:0px;writing-mode:lr-tb;text-anchor:start;fill:#000000;fill-opacity:1;stroke:none;font-family:Noto Sans T Chinese;-inkscape-font-specification:Noto Sans T Chinese"
         x="272.2793"
         y="827.80762"
         id="text4602"
         sodipodi:linespacing="125%"><tspan
           sodipodi:role="line"
           id="tspan4610"
           x="272.2793"
           y="827.80762">JOSM</tspan></text>
    </g>
  </g>
  <g
     sodipodi:insensitive="true"
     inkscape:groupmode="layer"
     inkscape:label="Printing Marks"
     id="printing-marks">
    <g
       id="CropMarks"
       inkscape:label="CropMarks">
      <path
         d="M 0,0.0 L 0,-35.433070866"
         id="cropTL1"
         style="stroke:#000000;stroke-width:0.25;fill:none" />
      <path
         d="M 0.0,0 L -35.433070866,0"
         id="cropTL2"
         style="stroke:#000000;stroke-width:0.25;fill:none" />
      <path
         d="M 1052.36,0.0 L 1052.36,-35.433070866"
         id="cropTR1"
         style="stroke:#000000;stroke-width:0.25;fill:none" />
      <path
         d="M 1052.36,0 L 1087.79307087,0"
         id="cropTR2"
         style="stroke:#000000;stroke-width:0.25;fill:none" />
      <path
         d="M 0,744.09003 L 0,779.523100866"
         id="cropBL1"
         style="stroke:#000000;stroke-width:0.25;fill:none" />
      <path
         d="M 0.0,744.09003 L -35.433070866,744.09003"
         id="cropBL2"
         style="stroke:#000000;stroke-width:0.25;fill:none" />
      <path
         d="M 1052.36,744.09003 L 1052.36,779.523100866"
         id="cropBR1"
         style="stroke:#000000;stroke-width:0.25;fill:none" />
      <path
         d="M 1052.36,744.09003 L 1087.79307087,744.09003"
         id="cropBR2"
         style="stroke:#000000;stroke-width:0.25;fill:none" />
    </g>
    <g
       id="BleedMarks"
       inkscape:label="BleedMarks">
      <path
         d="M -17.716535433,-17.716535433 L -17.716535433,-53.149606299"
         id="bleedTL1"
         style="stroke-dashoffset:0;stroke:#000000;stroke-dasharray:4, 2, 1, 2;stroke-miterlimit:4;stroke-width:0.25;fill:none" />
      <path
         d="M -17.716535433,-17.716535433 L -53.149606299,-17.716535433"
         id="bleedTL2"
         style="stroke-dashoffset:0;stroke:#000000;stroke-dasharray:4, 2, 1, 2;stroke-miterlimit:4;stroke-width:0.25;fill:none" />
      <path
         d="M 1070.07653543,-17.716535433 L 1070.07653543,-53.149606299"
         id="bleedTR1"
         style="stroke-dashoffset:0;stroke:#000000;stroke-dasharray:4, 2, 1, 2;stroke-miterlimit:4;stroke-width:0.25;fill:none" />
      <path
         d="M 1070.07653543,-17.716535433 L 1105.5096063,-17.716535433"
         id="bleedTR2"
         style="stroke-dashoffset:0;stroke:#000000;stroke-dasharray:4, 2, 1, 2;stroke-miterlimit:4;stroke-width:0.25;fill:none" />
      <path
         d="M -17.716535433,761.806565433 L -17.716535433,797.239636299"
         id="bleedBL1"
         style="stroke-dashoffset:0;stroke:#000000;stroke-dasharray:4, 2, 1, 2;stroke-miterlimit:4;stroke-width:0.25;fill:none" />
      <path
         d="M -17.716535433,761.806565433 L -53.149606299,761.806565433"
         id="bleedBL2"
         style="stroke-dashoffset:0;stroke:#000000;stroke-dasharray:4, 2, 1, 2;stroke-miterlimit:4;stroke-width:0.25;fill:none" />
      <path
         d="M 1070.07653543,761.806565433 L 1070.07653543,797.239636299"
         id="bleedBR1"
         style="stroke-dashoffset:0;stroke:#000000;stroke-dasharray:4, 2, 1, 2;stroke-miterlimit:4;stroke-width:0.25;fill:none" />
      <path
         d="M 1070.07653543,761.806565433 L 1105.5096063,761.806565433"
         id="bleedBR2"
         style="stroke-dashoffset:0;stroke:#000000;stroke-dasharray:4, 2, 1, 2;stroke-miterlimit:4;stroke-width:0.25;fill:none" />
    </g>
  </g>
</svg>
